<svg xmlns="http://www.w3.org/2000/svg" aria-hidden="true" style="position:absolute;width:0;height:0;overflow:hidden"><defs><symbol id="icon-mail" viewBox="0 0 43 32"><path d="M37.33 0h-32c-2.18 0-4 1.81-4 4v24c0 2.19 1.82 4 4 4h32c2.19 0 4-1.81 4-4V4c0-2.19-1.81-4-4-4zm-.8 8.5L22.4 17.34a2.01 2.01 0 0 1-2.14 0L6.14 8.53a1.7 1.7 0 1 1 1.82-2.87L21.33 14l13.42-8.37a1.7 1.7 0 1 1 1.8 2.88h-.02z"/></symbol><symbol id="icon-tel" viewBox="0 0 32 32"><path d="m27.43 20.85-4.2-.46a3.3 3.3 0 0 0-2.73.91l-3.04 3.07A25.08 25.08 0 0 1 6.63 13.6l-.07-.14 3.06-3.06c.71-.7 1.05-1.71.94-2.72l-.46-4.16A3.32 3.32 0 0 0 6.81.59H3.93A3.29 3.29 0 0 0 .62 4.02a28.14 28.14 0 0 0 26.2 26.28h.08a3.29 3.29 0 0 0 3.43-3.3v-2.86a3.3 3.3 0 0 0-2.9-3.3z"/></symbol><symbol id="icon-name" viewBox="0 0 32 32"><path d="M16 16a8 8 0 0 0 0-16 8 8 0 0 0 0 16zm0 4c-5.33 0-16 2.67-16 8v2c0 1.1.9 2 2 2h28c1.1 0 2-.9 2-2v-2c0-5.33-10.67-8-16-8z"/></symbol><symbol id="icon-send" viewBox="0 0 32 32"><path fill="#fff" d="M32 0 0 18l10.23 3.79L26 7 14 23.19V32l5.73-6.7L27 28l5-28z" style="fill:var(--color1, #fff)"/></symbol><symbol id="icon-cross" viewBox="0 0 32 32"><path d="M32 3.2 28.8 0 16 12.8 3.2 0 0 3.2 12.8 16 0 28.8 3.2 32 16 19.2 28.8 32l3.2-3.2L19.2 16 32 3.2z"/></symbol><symbol id="icon-phone" viewBox="0 0 20 32"><path d="M17 0H3a3 3 0 0 0-3 3v26a3 3 0 0 0 3 3h14a3 3 0 0 0 3-3V3a3 3 0 0 0-3-3zM3 2h14c.56 0 1 .44 1 1v21H2V3c0-.56.44-1 1-1zm14 28H3a1 1 0 0 1-1-1v-3h16v3a1 1 0 0 1-1 1z" style=""/><path d="M4.7 27.48c.4.36.4.96 0 1.32a1.05 1.05 0 0 1-1.4 0 .9.9 0 0 1 0-1.32c.4-.36 1-.36 1.4 0z" style=""/></symbol><symbol id="icon-envelope" viewBox="0 0 43 32"><path d="M38.67 0H4a4 4 0 0 0-4 4v24a4 4 0 0 0 4 4h34.67a4 4 0 0 0 4-4V4a4 4 0 0 0-4-4zm0 2.67c.2 0 .38.04.54.1h-.01L21.33 18.24 3.47 2.77c.15-.06.33-.1.52-.1h34.68zm0 26.66H4c-.74 0-1.33-.6-1.33-1.33V5.6l17.78 15.41a1.33 1.33 0 0 0 1.77 0L40 5.6V28c0 .74-.6 1.33-1.33 1.33z" style=""/></symbol><symbol id="icon-twitter" viewBox="0 0 32 32"><path d="M32 6.08c-1.18.53-2.46.86-3.78 1.04a6.46 6.46 0 0 0 2.88-3.63 13.95 13.95 0 0 1-4.16 1.6 6.54 6.54 0 0 0-11.37 4.45c0 .54.06 1.06.18 1.56v-.04A18.55 18.55 0 0 1 2.26 4.23l-.03-.04a6.6 6.6 0 0 0 1.98 8.75l.02.02a6.3 6.3 0 0 1-2.96-.8v.06c0 3.2 2.27 5.84 5.26 6.45a6.41 6.41 0 0 1-3.01.1l.04.01a6.64 6.64 0 0 0 6.13 4.56h.01a13.1 13.1 0 0 1-9.77 2.73H0a18.29 18.29 0 0 0 10 2.95h.07c12.08 0 18.67-10 18.67-18.67 0-.29 0-.58-.03-.85A13.1 13.1 0 0 0 32 6.1z" style=""/></symbol><symbol id="icon-facebook" viewBox="0 0 18 32"><path d="M13.33 5.31h2.93V.22C15.74.16 14.02 0 12 0 7.78 0 4.9 2.66 4.9 7.52V12H.26v5.68H4.9V32h5.7V17.7h4.46l.7-5.7h-5.17V8.08c0-1.65.45-2.77 2.74-2.77z" style=""/></symbol><symbol id="icon-linkedin" viewBox="0 0 32 32"><path d="M32 32V20.26c0-5.73-1.23-10.16-7.95-10.16h-.26a6.96 6.96 0 0 0-6 3.42l-.01.03h-.1v-2.91H11.3V32h6.64V21.42c0-2.78.53-5.49 3.97-5.49 3.4 0 3.45 3.19 3.45 5.67V32H32zM.53 10.64h6.64V32H.53V10.64zM3.84 0A3.84 3.84 0 0 0 0 3.84v.02a3.87 3.87 0 0 0 3.84 3.87 3.87 3.87 0 0 0 0-7.73z" style=""/></symbol><symbol id="icon-taglinecompany" viewBox="0 0 67 32"><path d="M33.72 15.22a2.1 2.1 0 0 1-.43-1.41v-2.05c0-.63.15-1.1.43-1.43s.78-.5 1.47-.5c.65 0 1.12.15 1.39.43.3.35.44.79.41 1.22v.48h-1.17v-.48c0-.16 0-.32-.03-.48a.47.47 0 0 0-.17-.29.68.68 0 0 0-.42-.1.71.71 0 0 0-.44.11c-.1.08-.17.2-.2.31a2.4 2.4 0 0 0-.04.51v2.49c-.02.24.03.48.15.7a.6.6 0 0 0 .53.2c.15.02.3-.02.41-.1a.5.5 0 0 0 .18-.31c.02-.16.04-.33.03-.5v-.5H37v.46c.03.45-.1.9-.4 1.29-.27.3-.73.45-1.4.45s-1.18-.16-1.46-.5zM38.58 15.24c-.3-.31-.44-.78-.44-1.4V11.7c0-.61.15-1.07.44-1.39s.8-.46 1.48-.46c.69 0 1.18.15 1.47.46.3.32.45.78.45 1.39v2.15c0 .61-.15 1.08-.45 1.4s-.8.48-1.47.48c-.68 0-1.18-.16-1.48-.48zm2.02-.51c.11-.2.16-.42.14-.64v-2.64c.02-.22-.03-.43-.13-.63-.06-.07-.15-.13-.24-.17s-.2-.05-.3-.04c-.11-.01-.22 0-.32.04s-.18.1-.24.17c-.1.2-.15.41-.14.63v2.65c-.01.22.04.44.14.64.07.07.16.12.25.16s.2.05.3.05c.1 0 .2-.02.3-.05s.18-.1.24-.16v-.01zM43.38 9.9h1.26l.94 3.98.97-3.98h1.22l.12 5.74H47l-.1-3.99-.93 4h-.73l-.96-4.01-.1 4h-.9l.11-5.74zM49.3 9.9h1.96c1.13 0 1.69.54 1.69 1.63 0 1.04-.6 1.56-1.78 1.56h-.67v2.56h-1.2V9.9zm1.67 2.46a.94.94 0 0 0 .67-.19c.14-.19.2-.42.17-.65 0-.17-.01-.35-.06-.52-.01-.05-.04-.1-.09-.15s-.09-.09-.15-.12c-.17-.07-.35-.1-.54-.1h-.47v1.72h.47zM54.7 9.9h1.29l1.33 5.74h-1.13l-.26-1.32h-1.16l-.27 1.32h-1.14l1.33-5.74zm1.1 3.75-.45-2.4-.45 2.4h.9zM58.4 9.9h.84l1.62 3.28V9.9h1v5.74h-.8l-1.63-3.42v3.42H58.4V9.9zM64.2 13.46 62.87 9.9H64l.82 2.28.77-2.28h1.1l-1.32 3.54v2.2H64.2v-2.2zM35.59 18.16v.3h-.99v2.33h-.41v-2.33h-.99v-.3h2.39zM38.68 20.79h-.32c-.03 0-.06 0-.09-.03a.13.13 0 0 1-.05-.06l-.29-.62h-1.36l-.29.63-.04.07a.15.15 0 0 1-.1.02h-.31l1.2-2.63h.43l1.22 2.62zm-2-.98h1.14l-.48-1.07a1.75 1.75 0 0 1-.1-.25l-.04.14-.04.11-.48 1.07zM40.76 20.53H41a1.39 1.39 0 0 0 .37-.08l.16-.06v-.6H41l-.03-.01-.02-.03v-.22h.93v1a1.84 1.84 0 0 1-.8.27c-.13.02-.24.02-.36.02-.21 0-.42-.03-.61-.1a1.3 1.3 0 0 1-.8-.7 1.32 1.32 0 0 1-.1-.54c-.01-.18.03-.37.1-.55.07-.15.18-.3.31-.41.14-.12.3-.22.49-.28a2.04 2.04 0 0 1 .98-.07 1.65 1.65 0 0 1 .53.17l.21.14-.12.16c0 .02-.02.03-.04.04l-.05.01c-.03 0-.05 0-.08-.02a1.58 1.58 0 0 1-.11-.06c-.05-.03-.1-.06-.17-.07a1.5 1.5 0 0 0-.52-.09c-.16 0-.32.03-.47.08-.13.04-.26.12-.36.2-.1.1-.17.21-.22.33-.1.29-.1.6 0 .88a1.03 1.03 0 0 0 1.07.6zM44.61 20.49h1.32v.3h-1.72v-2.63h.41v2.33zM47.3 20.79h-.4v-2.63h.4v2.63zM48.84 18.17c.03.01.05.03.06.05l1.77 1.98V18.15h.36v2.64h-.2l-.1-.01a.23.23 0 0 1-.06-.05l-1.77-1.99v2.05h-.34v-2.63h.21a.2.2 0 0 1 .07 0zM54.07 18.16v.29h-1.46v.87h1.18v.27h-1.18v.9h1.46v.3h-1.89v-2.63h1.89zM10.78 1.89l18.34 4.5v15.75l-18.34-4.5V1.9zM9.61.55V18.4L30.3 23.5V5.62L9.6.54z" style=""/><path d="M20.7 31.78 0 26.7V8.84l20.7 5.07v17.87z" style=""/><path d="m9.95 1.69 18.1 4.44-7.7 6.65-18.1-4.45 7.7-6.64zM9.6.54 0 8.85l20.7 5.07 9.6-8.29L9.6.55zM21.86 30.78l8.44-7.3-8.44-2.06v9.36z" style=""/></symbol><symbol id="icon-foster" viewBox="0 0 65 32"><path d="M10.02 9.98c-1.83 0-3.31 1.32-3.31 2.94 0 1.63 1.48 2.95 3.3 2.95 1.83 0 3.31-1.32 3.31-2.94 0-1.63-1.48-2.95-3.3-2.95zM34.43 9.04c0-2.25-1.01-4.41-2.8-6S27.4.53 24.85.53c-2.54 0-4.97.9-6.77 2.49s-2.8 3.76-2.8 6.01v12.44s19.14-1.9 19.14-12.44zM0 25.56c0 1.57.7 3.08 1.96 4.19s2.94 1.73 4.7 1.74c1.77-.01 3.46-.63 4.7-1.74s1.96-2.62 1.96-4.19v-8.65S0 18.23 0 25.56zm6.66 1.55c-.34 0-.68-.09-.97-.26s-.5-.41-.64-.7c-.13-.28-.17-.59-.1-.9s.23-.57.48-.79.55-.36.9-.42c.33-.06.68-.03 1 .09s.59.31.78.57a1.43 1.43 0 0 1-.21 1.96 1.89 1.89 0 0 1-1.24.46zM20.13 26.26h-1.29v1.33h-.67v-3.25h2.12v.54h-1.45v.84h1.29v.54zm3.22-.23c0 .32-.06.6-.17.85s-.28.42-.5.55c-.2.14-.44.2-.71.2-.27 0-.51-.06-.72-.2s-.38-.3-.5-.55a1.9 1.9 0 0 1-.17-.83v-.16c0-.32.06-.6.17-.84a1.28 1.28 0 0 1 1.21-.76c.27 0 .51.07.72.2.21.13.38.31.5.56.1.24.17.52.17.84v.14zm-.68-.14c0-.34-.06-.6-.19-.78s-.3-.26-.52-.26a.6.6 0 0 0-.52.26c-.12.17-.18.43-.18.77v.15c0 .34.06.6.18.78s.3.27.53.27a.6.6 0 0 0 .52-.26c.12-.18.18-.44.18-.77v-.16zm2.85.84a.34.34 0 0 0-.14-.29 1.71 1.71 0 0 0-.48-.21 3.46 3.46 0 0 1-.55-.22c-.37-.2-.55-.47-.55-.8 0-.18.05-.34.14-.48.1-.14.25-.24.43-.32.19-.08.4-.12.63-.12.23 0 .43.04.62.13a.93.93 0 0 1 .57.88h-.67a.43.43 0 0 0-.14-.35.58.58 0 0 0-.4-.13c-.16 0-.29.04-.38.11a.32.32 0 0 0-.13.27c0 .1.05.2.15.27.11.07.27.14.48.2.38.11.65.26.83.42s.26.39.26.64c0 .28-.1.5-.32.66-.21.16-.5.24-.86.24-.25 0-.48-.04-.68-.14a.97.97 0 0 1-.63-.93h.67c0 .36.21.54.64.54.16 0 .29-.03.37-.1a.32.32 0 0 0 .14-.27zm3.57-1.85h-1v2.7h-.66v-2.7h-.99v-.54h2.65v.54zm2.34 1.3h-1.28v.87h1.5v.54h-2.17v-3.25h2.17v.54h-1.5v.77h1.28v.53zm1.82.22h-.53v1.19h-.67v-3.25h1.2c.39 0 .69.08.9.25s.3.42.3.73a1 1 0 0 1-.14.55.98.98 0 0 1-.43.36l.7 1.33v.03h-.72l-.6-1.2zm-.53-.55h.54c.16 0 .3-.04.39-.12.09-.09.14-.2.14-.36a.49.49 0 0 0-.14-.36c-.08-.09-.22-.13-.4-.13h-.53v.97zm4.05.6v1.14h-.67v-3.25h1.27c.25 0 .46.04.65.13.18.09.32.22.42.38.1.17.16.35.16.56 0 .32-.11.57-.33.76-.22.18-.52.27-.9.27h-.6zm0-.55h.6c.18 0 .32-.04.4-.13.1-.08.15-.2.15-.35 0-.16-.05-.3-.14-.39s-.23-.15-.4-.15h-.6v1.02zm4.24.28h-1.28v.87h1.5v.54h-2.17v-3.25h2.17v.54h-1.5v.77H41v.53zm3.1-1.3h-.99v2.7h-.67v-2.7h-.98v-.54h2.65v.54zm2.35 1.3h-1.29v.87h1.51v.54H44.5v-3.25h2.18v.54h-1.5v.77h1.28v.53zm1.82.22h-.54v1.19h-.67v-3.25h1.21c.39 0 .68.08.89.25s.31.42.31.73a1 1 0 0 1-.14.55.98.98 0 0 1-.44.36l.7 1.33v.03h-.71l-.61-1.2zm-.54-.55h.54c.17 0 .3-.04.4-.12.09-.09.13-.2.13-.36a.49.49 0 0 0-.13-.36c-.09-.09-.22-.13-.4-.13h-.54v.97zm3.94.88a.34.34 0 0 0-.13-.29 1.71 1.71 0 0 0-.49-.21 3.46 3.46 0 0 1-.55-.22c-.37-.2-.55-.47-.55-.8 0-.18.05-.34.14-.48.1-.14.25-.24.43-.32.19-.08.4-.12.63-.12.23 0 .44.04.62.13a.93.93 0 0 1 .57.88h-.67a.43.43 0 0 0-.14-.35.58.58 0 0 0-.4-.13c-.16 0-.29.04-.38.11a.32.32 0 0 0-.13.27c0 .1.05.2.15.27.11.07.27.14.48.2.38.11.65.26.83.42s.26.39.26.64c0 .28-.1.5-.32.66-.21.16-.5.24-.86.24-.25 0-.48-.04-.68-.14a.97.97 0 0 1-.63-.93h.67c0 .36.21.54.64.54.16 0 .28-.03.37-.1a.32.32 0 0 0 .14-.27z" style=""/></symbol><symbol id="icon-diagram" viewBox="0 0 32 32"><path fill="#2196f3" d="M14.93 14.96h1.06v4.8h-1.06v-4.8zM19.19 17.1h1.07v2.66h-1.07V17.1zM10.66 18.7h1.07v1.06h-1.07V18.7zM7.46 18.16h1.07v1.6H7.46v-1.6z" style="fill:var(--color2, #2196f3)"/><path fill="#212121" d="M1.6 28.3h25.59c.88 0 1.6-.73 1.6-1.6v-2.14c0-.88-.72-1.6-1.6-1.6h-.54V9.66l3.03-2.86a1.6 1.6 0 1 0-.75-.76L26.65 8.2V6.97c0-.88-.71-1.6-1.6-1.6H3.73c-.88 0-1.6.72-1.6 1.6v16H1.6c-.88 0-1.6.7-1.6 1.6v2.12c0 .89.72 1.6 1.6 1.6zM30.38 4.83a.53.53 0 1 1 0 1.06.53.53 0 0 1 0-1.06zM3.2 6.97c0-.3.24-.53.53-.53h21.32c.3 0 .54.23.54.53V9.2l-1.07 1.01V8.03c0-.29-.24-.53-.53-.53H4.79c-.29 0-.53.24-.53.53v13.33c0 .3.24.53.54.53h19.19c.3 0 .53-.23.53-.53V11.7l1.07-1.01v12.28H3.19v-16zM8 13.9a1.6 1.6 0 1 0 1.1 2.75l1.86.93c.21.1.47.06.63-.12l3.94-4.44 3.87 2.9c.21.16.5.14.69-.03l3.36-3.2v8.14H5.33V8.57h18.12v2.66l-3.77 3.57-3.9-2.93a.53.53 0 0 0-.72.08l-4 4.49-1.49-.75c.02-.06.02-.13.02-.19 0-.88-.71-1.6-1.6-1.6zm.53 1.6a.53.53 0 1 1-1.07 0 .53.53 0 0 1 1.07 0zm3.2 8.53h5.33v.53c0 .3-.24.53-.53.53h-4.27a.53.53 0 0 1-.53-.53v-.53zm-10.66.53c0-.3.24-.53.53-.53h9.06v.53c0 .88.72 1.6 1.6 1.6h4.26c.89 0 1.6-.72 1.6-1.6v-.53h9.06c.3 0 .54.24.54.53v2.13c0 .3-.24.53-.53.53H1.59a.53.53 0 0 1-.52-.53v-2.13z" style="fill:var(--color4, #212121)"/></symbol><symbol id="icon-clock" viewBox="0 0 32 32"><path fill="#212121" d="M31.3 15.3a15.3 15.3 0 1 0-19.96 14.58l.18.03c.12 0 .24-.03.35-.1.13-.07.23-.2.28-.35L16 17.21a1.91 1.91 0 1 0-.84-3.63l-5.1-5.1a.64.64 0 0 0-.9.9l5.1 5.1c-.4.8-.17 1.77.53 2.31l-3.68 11.67a14.04 14.04 0 1 1 10.57-.35l-.4-1.87a.64.64 0 0 0-1.04-.34l-3.84 3.42a.64.64 0 0 0 .23 1.09l4.9 1.56a.64.64 0 0 0 .82-.74l-.4-1.84A15.26 15.26 0 0 0 31.3 15.3zM16 14.66a.64.64 0 1 1 0 1.28.64.64 0 0 1 0-1.28zm2.1 14.87 2.18-1.95.6 2.84-2.79-.9z" style="fill:var(--color4, #212121)"/><path fill="#2196f3" d="M15.35 3.19v1.27a.64.64 0 1 0 1.28 0V3.19a.64.64 0 0 0-1.28 0zM3.88 14.66a.64.64 0 0 0 0 1.28h1.27a.64.64 0 1 0 0-1.28H3.88zM28.1 15.94a.64.64 0 1 0 0-1.28h-1.27a.64.64 0 0 0 0 1.28h1.28z" style="fill:var(--color2, #2196f3)"/></symbol><symbol id="icon-antenna" viewBox="0 0 32 32"><path fill="#212121" d="m30.77 22.1-8.44-8.5.94-4.62c.24.1.5.14.75.14h.01a2.16 2.16 0 1 0-2-1.43l-4.97.6L8.97.16A.53.53 0 0 0 8.6 0a.53.53 0 0 0-.37.16l-1.51 1.5c-.2.2-.2.55 0 .75l.81.83a14.94 14.94 0 0 0 2.52 17.66c.05.04.1.08.15.1-.04.18-.05.36-.05.55v6.18h-6.4a2.67 2.67 0 0 0-2.67 2.67v1.07c0 .3.24.53.53.53h24.54c.29 0 .53-.24.53-.53V30.4c0-1.47-1.2-2.66-2.67-2.66h-6.4v-2.75a14.85 14.85 0 0 0 10.09-1.46l.82.82a.53.53 0 0 0 .75 0l1.51-1.5c.2-.2.2-.54 0-.75zM23.28 6.23a1.07 1.07 0 1 1 .75 1.82 1.07 1.07 0 0 1-.75-1.82zm-1.26 3.5-.6 2.95-1.17-1.18 1.78-1.76zm-.6-.9-1.92 1.92L18 9.25l3.4-.41zM24 28.8c.89 0 1.6.72 1.6 1.6v.53H2.14v-.53c0-.88.71-1.6 1.6-1.6H24zm-7.46-2.13v1.06H11.2v-1.06h5.34zM11.2 25.6v-4.05c0-1.3 1.2-2.35 2.67-2.35s2.67 1.05 2.67 2.35v4.05H11.2zm6.4-1.7v-2.35c0-1.89-1.67-3.42-3.73-3.42a3.8 3.8 0 0 0-3.28 1.79A13.87 13.87 0 0 1 8.31 4.03l18.6 18.71a13.82 13.82 0 0 1-9.3 1.16zm11.3-.68L7.83 2.04l.75-.75 7.94 7.98 13.12 13.2-.76.75z" style="fill:var(--color4, #212121)"/><path fill="#2196f3" d="M13.88 20.27a1.6 1.6 0 1 0-.01 3.2 1.6 1.6 0 1 0 0-3.2zm.37 1.98c-.1.1-.24.15-.38.15a.53.53 0 0 1 0-1.07.53.53 0 0 1 .37.92z" style="fill:var(--color2, #2196f3)"/></symbol><symbol id="icon-astronaut" viewBox="0 0 32 32"><path fill="#2196f3" d="M31.97 4.53a.54.54 0 0 0-.43-.37l-1.9-.27-.86-1.74c-.18-.36-.78-.36-.96 0l-.85 1.74-1.9.27a.54.54 0 0 0-.3.92l1.38 1.34-.33 1.9v.09a.53.53 0 0 0 .78.47l1.7-.9 1.71.9a.53.53 0 0 0 .78-.57v.01l-.33-1.9 1.39-1.35c.14-.14.2-.35.13-.55zm-2.46 1.32a.53.53 0 0 0-.15.47l.19 1.12-1-.53a.52.52 0 0 0-.5 0l-1 .53.2-1.12a.53.53 0 0 0-.16-.47l-.81-.79 1.12-.16a.54.54 0 0 0 .4-.3l.5-1 .5 1c.08.16.23.27.4.3l1.12.16-.8.8zm-3.38 14.68h-1.06v1.06h1.07v-1.07zm0 2.13h-1.06v1.06h1.07v-1.06zm1.07-1.07h-1.06v1.07h1.06v-1.07zm-2.13 0H24v1.07h1.06v-1.07zm-2.67 4.8h-1.06v1.07h1.06v-1.07zm0 2.14h-1.06v1.06h1.06v-1.07zm1.07-1.07H22.4v1.06h1.06v-1.06zm-2.13 0h-1.07v1.06h1.07v-1.06zM16 24.26h-1.06v1.06H16v-1.06zm0 2.13h-1.06v1.07H16v-1.07zm1.07-1.06H16v1.06h1.06v-1.07zm-2.13 0h-1.07v1.06h1.07v-1.07zM5.87 6.13H4.8v1.06h1.07V6.12zm0 2.13H4.8v1.06h1.07V8.26zm1.06-1.07H5.86v1.07h1.07V7.19zm-2.13 0H3.74v1.07H4.8V7.19z" style="fill:var(--color2, #2196f3)"/><path fill="#212121" d="M24.71 14.16c-.28-.38-.7-.64-1.18-.7a1.77 1.77 0 0 0-1.34.35l-1.25.96-1.9 1.41-1.36-.54A6.93 6.93 0 0 0 14.83 2.4a6.95 6.95 0 0 0-5.84 10.7l-2.77-.03H6.2c-.06 0-.1.02-.16.03l-.03.02h-.03l-3.23 1.6-1.9.91a1.78 1.78 0 0 0 1.8 3.09h-.02l1.39-.73 2.26-1.17 1.36-.01-6.78 6.76a1.64 1.64 0 0 0 0 2.35 1.66 1.66 0 0 0 2.36 0l1.3-1.31 1.75-1.3.9.9-1.76 1.75-1.34 1.33a1.64 1.64 0 0 0 0 2.36 1.66 1.66 0 0 0 2.36 0l3.48-3.47 1.01-1 .02-.03 5.16-5.66 3.48.5h.06a.5.5 0 0 0 .2-.03l.05-.03.06-.02 3.21-2.13.03-.04.04-.02 1.27-1.2a1.78 1.78 0 0 0 .2-2.36h.01zm-22.58 3.6a.72.72 0 0 1-.78-1.2l1.32-.63.32.92.13.4-.99.52zm3.5-1.82-1.55.8-.26-.74-.18-.54 2.03-1-.04 1.48zm15.1-6.61a5.8 5.8 0 0 1-.6 2.56l-4.18-1.9a1.86 1.86 0 0 0-.78-1.39h-.01l1.46-4.86a5.87 5.87 0 0 1 4.1 5.59zm-11.8 0a5.89 5.89 0 0 1 6.68-5.82h-.03l-1.44 4.75h-.05c-1.03 0-1.87.83-1.87 1.86a1.87 1.87 0 0 0 3.48.93l3.87 1.75A5.9 5.9 0 0 1 8.93 9.33zm5.96.8a.8.8 0 1 1-1.61 0 .8.8 0 0 1 1.61 0zM2.47 25.15a.61.61 0 0 1-.86 0 .6.6 0 0 1 0-.85l.96-.96.86.85-.97.95zm3.21 3.73a.6.6 0 0 1-.85-.84l.96-.96.85.84-.96.96zm3.49-3.47L7.4 27.17l-.85-.85 1.76-1.75.1-.14.02-.04a.37.37 0 0 0 .02-.12l.02-.08-.02-.1-.02-.1a.7.7 0 0 0-.09-.14l-.03-.04-1.6-1.6-.06-.03c-.03-.03-.06-.05-.1-.06a.5.5 0 0 0-.08-.03.54.54 0 0 0-.1-.03l-.1.01-.1.02a.31.31 0 0 0-.1.05l-.06.02-1.77 1.33-.9-.9 2.4-2.39 4.36 4.3-.93.9zm6.81-7.02h-.07a.52.52 0 0 0-.35.14l-.05.03-4.7 5.15-4.32-4.25 2.83-2.83c.1-.1.16-.23.16-.37 0-.3-.24-.54-.53-.54l-2.23.01.03-1.6 3.1.02a6.93 6.93 0 0 0 6.31 1.97l-.04.01c.03.03.08.07.13.09l2.4.96.16.76.18.88-3-.42zm4.04.18-.3-1.55 1.44-1.08.38.5.56.75-2.08 1.38zm3.76-2.83-.84.79-.93-1.24.83-.64a.73.73 0 0 1 .55-.14.72.72 0 0 1 .4 1.23z" style="fill:var(--color4, #212121)"/><path fill="#212121" d="m13.6 18.55-2.14-2.14a.53.53 0 0 0-.75 0l-2.15 2.14a.53.53 0 0 0 0 .75l2.15 2.13a.53.53 0 0 0 .75 0l2.14-2.13a.53.53 0 0 0 0-.75zm-2.51 1.75-1.4-1.37 1.39-1.39 1.39 1.39-1.4 1.38zm6.08-15.23-.27 1.04c.08.01 1.74.45 1.74 2.15h1.07c0-2.02-1.67-2.97-2.54-3.19zm2.54 4.26h-1.07v1.06h1.07V9.32z" style="fill:var(--color4, #212121)"/></symbol><symbol id="icon-instagram" viewBox="0 0 32 32"><path d="M31.97 9.4c-.03-1.4-.3-2.73-.76-3.96l.02.08a7.86 7.86 0 0 0-1.85-2.83A7.95 7.95 0 0 0 26.54.85 11.48 11.48 0 0 0 22.67.1h-.01a104.86 104.86 0 0 0-6.69-.1h.1c-4.36 0-4.9.02-6.6.1C7.76.16 6.6.45 5.58.83A8 8 0 0 0 2.75 2.7 8 8 0 0 0 .9 5.52 11.47 11.47 0 0 0 .16 9.4a104.86 104.86 0 0 0-.1 6.69V16c0 4.35 0 4.9.08 6.6.03 1.4.3 2.73.78 3.96l-.02-.08a7.78 7.78 0 0 0 1.85 2.83 8 8 0 0 0 2.83 1.86c1.01.38 2.18.65 3.88.73 1.7.08 2.24.1 6.59.1s4.9-.02 6.6-.1c1.4-.02 2.73-.29 3.96-.76l-.08.03a8.24 8.24 0 0 0 4.67-4.64l.02-.05c.38-1.02.67-2.18.73-3.89.08-1.7.1-2.24.1-6.59 0-4.34 0-4.88-.08-6.6zm-2.88 13.08a8.54 8.54 0 0 1-.55 2.96 5.34 5.34 0 0 1-3 3.03l-.04.01c-.56.22-1.42.48-2.97.54-1.68.08-2.2.1-6.47.1a106.97 106.97 0 0 1-6.7-.1h.24a8.45 8.45 0 0 1-2.96-.54 4.96 4.96 0 0 1-1.84-1.2c-.52-.5-.93-1.1-1.19-1.79l-.01-.03a8.64 8.64 0 0 1-.54-2.98 108.65 108.65 0 0 1-.1-6.55v.09c0-4.28.02-4.79.1-6.47.06-1.57.32-2.4.54-2.97.26-.7.66-1.32 1.2-1.83.5-.52 1.12-.93 1.8-1.19h.04c.56-.23 1.4-.49 2.98-.55 1.68-.08 2.19-.1 6.44-.1 4.3 0 4.8 0 6.47.1 1.57.06 2.4.32 2.97.54.7.26 1.33.66 1.84 1.2.53.51.95 1.14 1.2 1.83.21.57.48 1.42.55 2.97.08 1.68.1 2.2.1 6.47s-.02 4.76-.1 6.46z" style=""/><path d="M16.06 7.78a8.22 8.22 0 1 0 0 16.44 8.22 8.22 0 1 0 0-16.44zm0 13.55a5.33 5.33 0 1 1 0-10.66 5.33 5.33 0 1 1 0 10.66zM26.53 7.46a1.92 1.92 0 0 1-3.84 0 1.92 1.92 0 0 1 3.84 0z" style=""/></symbol><symbol id="icon-yaandco" viewBox="0 0 28 32"><path d="m4.08 0 4.77 4.51H0v21.9h23.15v-8.37l4.77 4.51V0H4.07zm18.86 17.52L9.4 4.72h13.54v12.8zm-4.2 5.7H3.66V8.48h1.07v13.74h14v1zM7.22 29.35l-.55 1.14-.56-1.15h-.46l.82 1.54v.88h.41v-.88l.82-1.54h-.48zm.7 2.41.2-.56h.94l.2.56h.44l-.92-2.42H8.4l-.92 2.42h.45zm.67-1.9.35 1h-.7l.35-1zm2.21.95a.54.54 0 0 0-.08.3c0 .2.06.37.2.5.15.12.35.19.59.19s.44-.07.61-.2l.14.16h.47l-.36-.41c.14-.2.2-.44.2-.74h-.33c0 .16-.04.31-.11.44l-.47-.54.17-.13a.8.8 0 0 0 .25-.25.53.53 0 0 0-.1-.66.61.61 0 0 0-.4-.16h-.06a.64.64 0 0 0-.43.17c-.11.1-.17.25-.17.41v.03c0 .08.02.17.05.25s.1.18.2.3c-.14.1-.26.2-.36.33zm1.1.53a.6.6 0 0 1-.39.14h-.02a.4.4 0 0 1-.26-.1.36.36 0 0 1-.11-.27c0-.14.07-.25.2-.35l.05-.05.52.63zm-.43-1.08c-.12-.13-.17-.25-.17-.34a.3.3 0 0 1 .06-.2c.05-.05.1-.08.18-.08.08 0 .14.02.2.07.04.04.06.1.06.15a.3.3 0 0 1-.1.24l-.05.04-.18.12zm3.93 1.32a.86.86 0 0 0 .29-.6h-.42c-.02.17-.07.3-.15.37-.1.07-.2.1-.38.1h-.02a.47.47 0 0 1-.39-.2c-.1-.14-.14-.34-.14-.6v-.21c0-.26.05-.46.15-.59.1-.13.24-.2.42-.2.16 0 .27.04.35.12s.14.2.16.37h.42a.9.9 0 0 0-.28-.61.93.93 0 0 0-.6-.22h-.05a1 1 0 0 0-.52.14.93.93 0 0 0-.35.4c-.08.18-.12.38-.12.6v.24c0 .21.04.41.12.58s.19.3.34.39c.15.1.32.14.51.14.27 0 .5-.07.66-.21zm2.47-.34c.08-.18.12-.38.12-.62v-.14c0-.24-.04-.44-.12-.61a.93.93 0 0 0-.85-.56h-.04a.92.92 0 0 0-.87.56 1.5 1.5 0 0 0-.12.62v.14c0 .23.04.44.13.61s.2.32.35.41a1.05 1.05 0 0 0 1.05 0c.15-.1.28-.23.35-.4zm-.45-1.36c.1.13.16.34.16.6v.14c0 .27-.05.48-.16.62a.49.49 0 0 1-.4.21h-.04a.5.5 0 0 1-.41-.21c-.1-.16-.16-.35-.16-.56v-.2c0-.26.05-.46.16-.61a.5.5 0 0 1 .43-.2.5.5 0 0 1 .42.2z" style=""/></symbol><symbol id="icon-company" viewBox="0 0 34 32"><path d="m5.64 31.31.04.01.03.02.16.16c-.13.13-.29.23-.46.3-.21.08-.44.12-.66.1a1.9 1.9 0 0 1-.63-.09 1.28 1.28 0 0 1-.76-.71v-.01a1.45 1.45 0 0 1 0-1.15v.01a1.4 1.4 0 0 1 .81-.72 1.92 1.92 0 0 1 1.26-.01h-.01c.16.05.3.14.44.25l-.14.17a.15.15 0 0 1-.04.03.1.1 0 0 1-.05.01.14.14 0 0 1-.06-.02l-.08-.04-.1-.06a1.16 1.16 0 0 0-.52-.12H4.8c-.15 0-.3.02-.45.08-.27.09-.49.3-.6.55-.05.13-.09.29-.09.45 0 .15.03.3.09.45.1.26.31.46.57.55.14.05.29.08.43.08l.25-.02a1 1 0 0 0 .55-.23.13.13 0 0 1 .08-.03zm4.8-.8c0 .2-.03.38-.1.57-.08.16-.18.3-.32.43-.15.13-.3.23-.5.3a2 2 0 0 1-1.26 0 1.45 1.45 0 0 1-.49-.3 1.28 1.28 0 0 1-.3-.43l-.01-.01a1.37 1.37 0 0 1 .31-1.56 1.64 1.64 0 0 1 1.12-.39 2 2 0 0 1 .65.11h-.02a1.3 1.3 0 0 1 .91 1.24v.05zm-.44 0c0-.15-.02-.3-.07-.45a.93.93 0 0 0-.57-.54 1.44 1.44 0 0 0-.93 0h.01a1 1 0 0 0-.36.2.9.9 0 0 0-.22.34c-.1.3-.1.61 0 .91.1.26.3.46.57.55.3.09.63.09.92 0 .14-.05.26-.12.36-.21.1-.1.17-.22.22-.34.05-.15.07-.3.07-.46zm3.71.48.05.1.05-.1.05-.1 1.07-1.68c.01-.02.03-.04.05-.04a.27.27 0 0 1 .09-.02h.31v2.73h-.37V29.7l-1.07 1.7a.15.15 0 0 1-.06.06.2.2 0 0 1-.09.02h-.06c-.04 0-.07 0-.1-.02a.15.15 0 0 1-.05-.06l-1.1-1.71v2.19h-.37v-2.73h.32c.03 0 .06 0 .09.02.02 0 .04.02.06.04l1.08 1.68.05.1zm4-.13v1.02h-.41v-2.73h.92c.17 0 .35.02.52.06.13.03.26.1.36.17.1.07.17.17.21.27a.8.8 0 0 1 .07.35c0 .25-.11.47-.3.61a.93.93 0 0 1-.37.19 1.7 1.7 0 0 1-.48.06h-.52zm0-.3h.5c.11 0 .22 0 .33-.04a.7.7 0 0 0 .23-.12c.11-.1.19-.24.19-.4v-.04a.46.46 0 0 0-.04-.19.54.54 0 0 0-.15-.19.91.91 0 0 0-.56-.14h-.5v1.12zm5.58 1.32h-.33c-.04 0-.07-.01-.09-.03a.18.18 0 0 1-.05-.06l-.28-.66h-1.42l-.3.66a.15.15 0 0 1-.14.1h-.33l1.25-2.74h.43l1.26 2.73zm-2.06-1.02h1.18l-.5-1.1a1.57 1.57 0 0 1-.09-.25l-.04.14-.05.11-.5 1.1zm3.86-1.7.06.05 1.82 2.06v-2.12h.37v2.73h-.2c-.04 0-.07 0-.1-.02a.23.23 0 0 1-.06-.05l-1.81-2.06v2.13h-.38v-2.73h.23c.02 0 .05 0 .07.02zm5.31 1.64v1.08h-.41V30.8l-1.15-1.65h.38c.03 0 .06 0 .08.02l.06.06.71 1.07.13.23.05-.1.08-.13.7-1.07a.31.31 0 0 1 .05-.06.13.13 0 0 1 .09-.03h.39L30.4 30.8zm-16.9-6.22.56.05a15.3 15.3 0 0 0 6.79-5.1l.03-.03a12.19 12.19 0 0 0 2.42-7.56v.01l-3.1-2.68c.64 2.84.34 5.78-.84 8.48a16.09 16.09 0 0 1-5.79 6.8l-.06.03z" style=""/><path d="M12.4 24.46h.09a15.45 15.45 0 0 0 6.17-7.03 13 13 0 0 0 .55-8.92l.03.1-4.4-3.82a16.22 16.22 0 0 1 2.05 10.2v-.07c-.5 3.72-2.11 6.99-4.5 9.54l.01-.01zm14.93-9.35a13.8 13.8 0 0 1-5.14 7.5l-.04.03c-.76.58-1.59 1.1-2.45 1.54 2.12-.55 4.08-1.5 5.71-2.8a12.76 12.76 0 0 0 3.67-4.65l.03-.08-1.78-1.54z" style=""/><path d="m26.63 14.67-2.55-2.2a12.72 12.72 0 0 1-2.4 7.15l.02-.03a15.63 15.63 0 0 1-6.12 5.04l-.1.04h.02c.57 0 1.14-.03 1.7-.08 2.42-.86 4.48-2.2 6.15-3.92a12.89 12.89 0 0 0 3.26-5.9l.02-.1zM12.78 3.17 9.74.53c-2.7.9-4.97 2.49-6.67 4.56l-.02.03A11.36 11.36 0 0 0 .52 12.2a11.5 11.5 0 0 0 3.07 7.7v-.01a14.77 14.77 0 0 0 7.76 4.4l.1.03a16.57 16.57 0 0 0 4.64-10.33v-.05a16.1 16.1 0 0 0-3.34-10.8l.03.04zm20.85 11.1c0-3.31-1.52-6.48-4.22-8.82a15.5 15.5 0 0 0-10.04-3.67h-.12.01c-1.76 0-3.5.28-5.15.84l18.56 16.11c.6-1.3.96-2.84.96-4.46z" style=""/></symbol><symbol id="icon-brand" viewBox="0 0 43 32"><path d="M3.24 26.38c.16.18.25.42.25.66a.92.92 0 0 1-.1.46c-.06.14-.15.27-.28.38-.33.22-.73.33-1.13.3H0v-4.21h1.94a1.75 1.75 0 0 1 1.08.29H3a.95.95 0 0 1 .37.78.9.9 0 0 1-.22.64c-.15.17-.36.29-.59.34.26.04.5.17.67.36zm-2.31-.64h.81c.2.01.38-.04.53-.14.07-.05.11-.12.14-.2a.43.43 0 0 0 .04-.22v-.04a.47.47 0 0 0-.03-.18.53.53 0 0 0-.14-.18.85.85 0 0 0-.55-.15H.93v1.1zm1.43 1.62a.55.55 0 0 0 .2-.43v-.03a.55.55 0 0 0-.2-.4h-.01a.9.9 0 0 0-.5-.16H.92v1.16h.88c.2.01.4-.04.55-.15zm4.84.83-1.07-1.65h-.41v1.65h-.93v-4.22h1.88c.41 0 .8.13 1.1.36a1.26 1.26 0 0 1 .13 1.74c-.22.23-.52.38-.84.43l1.14 1.69h-1zm-1.48-2.23h.76c.53 0 .8-.2.8-.63v-.03a.65.65 0 0 0-.2-.45.87.87 0 0 0-.6-.17h-.77v1.28zm6.54 1.38h-1.84l-.33.85h-.97l1.7-4.18h1.05l1.68 4.18h-.97l-.33-.85zm-.24-.64-.68-1.78-.68 1.78h1.36zm6.58 1.49h-.92l-2.06-2.87v2.86h-.91v-4.2h.92l2.06 2.87v-2.88h.92v4.22zm5.25-1.02c-.2.32-.48.58-.83.75a3 3 0 0 1-1.3.27H20.1v-4.22h1.64a3 3 0 0 1 1.29.26c.35.17.64.42.83.74a2.25 2.25 0 0 1 0 2.21zm-1.05-.1c.26-.27.41-.63.41-1s-.15-.73-.4-1a1.68 1.68 0 0 0-1.17-.36h-.63v2.72h.64c.42.03.83-.1 1.15-.35zM12.84.53s11.87 4.1 11.62 10.05V20.6s-11.86-4.1-11.62-10.04V.52zm22.2 17.74a17 17 0 0 1 7.47-2.54h.07v-3.15a15.34 15.34 0 0 0-7.51 5.64l-.03.05z" style=""/><path d="M33.69 19.2a15.81 15.81 0 0 1 8.78-7.25l.11-.04V2.84S25.67 8.7 26.03 17.16v14.3s.75-.26 1.94-.75c0-.47 0-.92.05-1.39a14.5 14.5 0 0 1 5.63-10.09l.04-.02z" style=""/><path d="M32.08 24.52c.1-.99.29-1.98.6-2.93a13.17 13.17 0 0 0-3.59 8.62v.03a56 56 0 0 0 3.26-1.58c-.3-1.36-.4-2.75-.27-4.14zm.67.05c-.11 1.25-.03 2.52.21 3.75 4.62-2.53 9.81-6.44 9.61-11.17v-.4c-3.39.33-6.41 1.7-8.8 3.77l.01-.02a12.8 12.8 0 0 0-1.02 4.02v.05z" style=""/></symbol><symbol id="icon-taglinehere" viewBox="0 0 25 32"><path d="M10.53 1.8h-.81l-.78.01h.04A17.4 17.4 0 0 0 2.5 3.46l-.27.13V17.2l.63-.2c2-.73 4.3-1.15 6.7-1.18v1.79l-.65.02h-.05c-3.1.17-5.97 1.03-8.5 2.42l.1-.05V2.52A17.87 17.87 0 0 1 5.14.62l.13-.04C6.62.22 8.17.01 9.77 0h.27a13 13 0 0 1 3.25.42L13.2.4v1.77c-.63-.16-1.37-.28-2.13-.33h-.09c-.15-.02-.3-.04-.45-.04zm3.1 1.8a18.92 18.92 0 0 0 6.09-.59l-.14.03a19.55 19.55 0 0 0 4.67-1.83l-.1.05v17.16a17.95 17.95 0 0 1-4.67 1.93l-.13.03c-1.47.37-2.99.57-4.5.57h-.11c-1.18 0-2.33-.14-3.42-.42l.1.02V3.27c.63.16 1.39.28 2.16.33h.05zm8.74.14-.62.21a20.67 20.67 0 0 1-8.1 1.14h.05l-.5-.02v14l.43.04a16.14 16.14 0 0 0 5.4-.5l-.1.03c1.21-.31 2.27-.7 3.27-1.2l-.1.05.27-.12V3.74zM1.69 25.98a.92.92 0 0 0-.66-.28H.99c-.13 0-.27.02-.4.07a.93.93 0 0 0-.58.9v2.35c0 .16.02.32.09.47a1 1 0 0 0 .23.31c.1.08.2.14.32.17s.24.05.35.05a.98.98 0 0 0 .97-.99v-.25h-.62v.2a.4.4 0 0 1-.03.2.38.38 0 0 1-.08.14.42.42 0 0 1-.26.09H.94a.3.3 0 0 1-.24-.12.55.55 0 0 1-.1-.3v-2.2c0-.12.03-.24.09-.34a.3.3 0 0 1 .3-.14c.11 0 .2.05.27.13.06.08.1.19.1.3v.21h.6v-.24c0-.29-.1-.54-.27-.74zm3.62-.03a1.08 1.08 0 0 0-1.06-.19.97.97 0 0 0-.32.19 1.02 1.02 0 0 0-.32.78v2.24c0 .16.02.31.08.46.06.12.14.23.24.3.1.1.2.17.32.21a1.06 1.06 0 0 0 .74 0h-.01a.96.96 0 0 0 .65-.9v-2.35a1 1 0 0 0-.32-.74zm-.28 3.02a.39.39 0 0 1-.13.32.45.45 0 0 1-.57 0 .4.4 0 0 1-.12-.29v-2.27a.39.39 0 0 1 .12-.32.45.45 0 0 1 .58 0 .4.4 0 0 1 .12.29v2.27zm5.04 1v-4.25h-.59l-.77 2.25-.78-2.25h-.58v4.24h.6v-2.58h.01l.6 1.83h.3l.6-1.83v2.58h.61zm3.44-3.94a.78.78 0 0 0-.34-.23 1.31 1.31 0 0 0-.42-.07h-.92v4.24h.6V28.3h.31c.2 0 .38-.03.55-.11.25-.16.42-.4.47-.7a2.92 2.92 0 0 0-.03-1.1v.02a.9.9 0 0 0-.22-.4zm-.3 1.3c-.01.07-.03.14-.07.2a.32.32 0 0 1-.15.16.6.6 0 0 1-.27.06H12.43V26.3h.3c.1 0 .2.01.28.06.07.03.12.08.15.15a.6.6 0 0 1 .05.23v.58zm3.16-1.6h-.5l-.92 4.24h.6l.18-.91h.82l.19.9h.6l-.96-4.23zm-.56 2.75.3-1.54h.01l.3 1.54h-.6zm4.47-.2h-.02l-.9-2.55h-.58v4.24h.6v-2.55h.01l.92 2.55h.56v-4.25h-.6v2.56zm3.69-2.55-.5 1.68-.5-1.68h-.62l.83 2.45v1.78h.6v-1.78l.83-2.45h-.64zM0 31.16h.29v.82h.2v-.82h.3V31h-.8v.16zM2.45 31l-.38.98h.2l.09-.22h.39l.08.22h.21L2.67 31h-.21zm-.03.6.13-.38.13.37h-.26zm2.44.02h.24v.12a.38.38 0 0 1-.24.09h-.02a.25.25 0 0 1-.19-.1.4.4 0 0 1-.07-.23v-.02c0-.22.1-.33.28-.33h.02c.1 0 .18.07.2.15l.2-.03c-.04-.2-.18-.3-.42-.3h-.02a.5.5 0 0 0-.32.13.48.48 0 0 0-.14.39c0 .13.03.26.12.36.09.1.21.15.35.15h.03a.6.6 0 0 0 .41-.16v-.39h-.43v.17zM7.33 31h-.2v.98h.7v-.16h-.5V31zm2.1 0h-.2v.98h.2V31zm2.04.66-.4-.66h-.2v.98h.19v-.64l.4.64h.19V31h-.19v.65zm1.85-.1h.49v-.18h-.5v-.22h.53V31h-.73v.98h.76v-.16h-.56v-.27zm4.47-.17h-.39v-.4h-.2v1h.2v-.44h.4v.43h.19V31h-.2v.38zm1.86.16h.5v-.17h-.5v-.22h.53V31h-.73v.98h.75v-.16h-.55v-.27zm2.52 0c.17-.03.25-.12.25-.28a.23.23 0 0 0-.09-.21.55.55 0 0 0-.25-.06H21.62v.98h.2v-.41h.04c.04 0 .08 0 .12.03.03.01.06.04.08.07l.21.3h.23l-.12-.18a.64.64 0 0 0-.21-.24zm-.2-.14h-.15v-.24h.16c.06 0 .14 0 .2.02.03.02.05.06.05.1 0 .04-.02.08-.06.1a.56.56 0 0 1-.17.03h-.03zm2.1.14h.49v-.17h-.5v-.22h.54V31h-.73v.98h.75v-.16h-.55v-.27z" style=""/></symbol></defs></svg>